<?xml version="1.0" encoding="UTF-8"?><svg id="Layer_2" xmlns="http://www.w3.org/2000/svg" viewBox="0 0 175.14 233.45"><defs><style>.cls-1{fill:#1a2c38;}.cls-2{fill:#c08aff;}.cls-3{fill:#557086;}.cls-4{fill:#962eff;}.cls-5{fill:#fff;}.cls-6{fill:#8ea3b2;}</style></defs><g id="After_Effects"><g id="token_purple_1"><polygon class="cls-3" points="141.92 233.45 175.14 200.23 175.14 33.22 141.92 0 33.22 0 0 33.22 0 200.23 33.22 233.45 141.92 233.45"/><polygon class="cls-3" points="126.96 207.5 49.14 207.5 33.22 233.44 33.23 233.45 141.86 233.45 141.86 233.36 126.96 207.5"/><polygon class="cls-4" points="149.19 49.32 125.81 25.95 49.32 25.95 25.95 49.32 25.95 116.72 149.19 116.72 149.19 49.32"/><polygon class="cls-2" points="25.95 116.72 25.95 184.13 49.32 207.5 125.81 207.5 149.19 184.13 149.19 116.72 25.95 116.72"/><path class="cls-1" d="M54.51,186.74l-7.8-7.8c-1.54-1.54-2.41-3.64-2.41-5.82V60.33c0-2.18.87-4.28,2.41-5.82l7.8-7.8c1.54-1.54,3.64-2.41,5.82-2.41h54.47c2.18,0,4.28.87,5.82,2.41l7.8,7.8c1.54,1.54,2.41,3.64,2.41,5.82v112.78c0,2.18-.87,4.28-2.41,5.82l-7.8,7.8c-1.54,1.54-3.64,2.41-5.82,2.41h-54.47c-2.18,0-4.28-.87-5.82-2.41Z"/><polygon class="cls-6" points="33.22 233.45 49.32 207.5 25.95 184.13 0 200.23 33.22 233.45"/><polygon class="cls-6" points="0 33.22 25.95 49.32 49.32 25.95 33.22 0 0 33.22"/><polygon class="cls-6" points="141.92 233.45 125.81 207.5 149.19 184.13 175.14 200.23 141.92 233.45"/><polygon class="cls-5" points="175.14 33.22 149.19 49.32 125.81 25.95 141.92 0 175.14 33.22"/><rect class="cls-2" x="76.56" y="142.91" width="22.02" height="22.02" rx="3.82" ry="3.82"/></g></g></svg>